HIERARCHY
ROOT Hips
{
  OFFSET 42.4102 96.803 -69.9419
  CHANNELS 6 Xposition Yposition Zposition Zrotation Xrotation Yrotation
  JOINT RightUpLeg
  {
    OFFSET -8.9458 -8.66707 0.101652
    CHANNELS 3 Zrotation Xrotation Yrotation
    JOINT RightLeg
    {
      OFFSET 0 -44.4227 1.3727
      CHANNELS 3 Zrotation Xrotation Yrotation
      JOINT RightFoot
      {
        OFFSET 0.253549 -42.0924 -1.46059
        CHANNELS 3 Zrotation Xrotation Yrotation
        JOINT RightToes
        {
          OFFSET 0.04 -4.41509 8.4991
          CHANNELS 3 Zrotation Xrotation Yrotation
          End Site
          {
            OFFSET -0.08 -0.137448 9.77979
          }
        }
      }
    }
  }
  JOINT Spine
  {
    OFFSET 0 11.8905 0
    CHANNELS 3 Zrotation Xrotation Yrotation
    JOINT Spine1
    {
      OFFSET 0 25.6574 0.127663
      CHANNELS 3 Zrotation Xrotation Yrotation
      JOINT HEad
      {
        OFFSET 0 8.73416 0.011341
        CHANNELS 3 Zrotation Xrotation Yrotation
        End Site
        {
          OFFSET -0.29 12.7742 2.51395
        }
      }
      JOINT LeftShoulder1
      {
        OFFSET 8.99 -0.362252 -0.22
        CHANNELS 3 Zrotation Xrotation Yrotation
        JOINT LeftArm
        {
          OFFSET 10.2827 -0.00338 0.322123
          CHANNELS 3 Zrotation Xrotation Yrotation
          JOINT LeftForeArm
          {
            OFFSET 32.7669 0.099144 -1.42434
            CHANNELS 3 Zrotation Xrotation Yrotation
            JOINT LeftHand
            {
              OFFSET 27.5643 0.085362 1.02216
              CHANNELS 3 Zrotation Xrotation Yrotation
              End Site
              {
                OFFSET 16.7443 -0.6 1.50291
              }
            }
          }
        }
      }
      JOINT RightShoulder
      {
        OFFSET -8.99 -0.362252 -0.22
        CHANNELS 3 Zrotation Xrotation Yrotation
        JOINT RightArm
        {
          OFFSET -10.2827 -0.00338 0.322123
          CHANNELS 3 Zrotation Xrotation Yrotation
          JOINT RightForeArm
          {
            OFFSET -32.8971 0.099144 -1.42434
            CHANNELS 3 Zrotation Xrotation Yrotation
            JOINT RightHand
            {
              OFFSET -27.4921 0.085362 1.02216
              CHANNELS 3 Zrotation Xrotation Yrotation
              End Site
              {
                OFFSET -16.6312 -0.6 1.50291
              }
            }
          }
        }
      }
    }
  }
  JOINT LeftUpLeg
  {
    OFFSET 8.9458 -8.66707 0.101652
    CHANNELS 3 Zrotation Xrotation Yrotation
    JOINT LeftLeg
    {
      OFFSET 0 -44.4227 1.3727
      CHANNELS 3 Zrotation Xrotation Yrotation
      JOINT LeftFoot
      {
        OFFSET -0.253549 -42.0924 -1.46059
        CHANNELS 3 Zrotation Xrotation Yrotation
        JOINT LeftToes
        {
          OFFSET -0.04 -4.41509 8.4991
          CHANNELS 3 Zrotation Xrotation Yrotation
          End Site
          {
            OFFSET 0.08 -0.047448 9.77979
          }
        }
      }
    }
  }
}
MOTION
Frames:	14
Frame Time:	0.0166667
41.1597 94.5952 17.3796 -4.73681 -0.626655 -0.556667 7.07404 5.47335 -10.8734 -1.81179 35.1999 -9.66678 2.01151 -10.2915 -0.125237 -4.53294 -3.13494 0.4583 5.34449 1.10168 0.868442 5.36318 0.717327 0.00229186 -5.39038 8.12565 2.88665 4.87644e-016 -1.98785e-016 4.96962e-017 -83.2123 -40.2581 -0.174307 -20.6722 9.91608 12.5499 0.368473 9.90896 -0.00117925 -6.05669 0.249746 4.46808 101.473 -16.2567 35.9408 14.0715 16.7496 36.7819 -0.369625 9.91382 0.00119886 -0.106371 -21.8438 2.15345 1.48114 11.983 19.7033 -6.62728 -15.2209 -0.694878 12.9292 4.82587 -4.41069 
41.4286 94.5776 19.5755 -4.24904 -0.588811 -0.45736 5.75386 4.99283 -12.0141 -2.68676 38.0305 -8.19358 2.37687 -6.60263 -0.144529 -7.56912 -2.95393 0.575493 4.94695 1.22383 0.701326 4.64107 0.569413 0.0223668 -5.01645 8.13584 2.63743 -1.98008e-016 0 -0 -83.4152 -39.3151 -0.815202 -21.0333 9.63602 12.6409 0.368473 9.90896 -0.00117925 -5.19493 0.30778 4.38226 100.697 -17.3845 33.7545 14.7695 17.0617 36.7714 -0.369625 9.91382 0.00119886 -0.567418 -22.2094 -0.246938 0.47899 15.1936 20.8573 -6.32099 -14.5312 -0.617175 10.2816 5.56864 -3.85444 
41.6546 94.4514 21.7585 -3.50083 -0.85157 -0.250654 3.98272 3.99788 -13.0519 -3.49534 42.0426 -6.62528 2.29999 -2.16439 -0.210755 -10.8394 -2.64794 0.748708 4.57434 1.38377 0.451801 3.49574 0.87312 0.033429 -4.47315 7.75939 2.30596 1.5103e-015 3.97569e-016 -0 -84.0017 -38.1765 -2.18406 -21.1775 9.5074 12.4552 0.368473 9.90896 -0.00117925 -4.58246 0.361467 4.61135 100.158 -18.6656 31.4162 15.3079 17.2873 36.7207 -0.369625 9.91382 0.00119886 -1.69826 -22.2238 -1.21798 0.172506 18.4464 20.3493 -6.18017 -15.8878 -0.671988 7.29467 5.53227 -2.9974 
41.8804 94.3091 23.8644 -2.61713 -1.12644 0.0015033 2.05951 2.4133 -13.5762 -4.28931 46.7385 -5.18119 1.86864 2.46404 -0.258943 -13.0349 -1.80983 0.992786 4.18323 1.52787 0.194938 2.22131 1.33426 0.0472544 -4.0592 7.2665 1.96705 1.02809e-015 0 -0 -84.8167 -36.7588 -4.01978 -21.3307 9.47909 11.979 0.368473 9.90896 -0.00117925 -4.11164 0.403085 4.80328 99.6078 -19.8738 29.0373 15.837 17.4553 36.3664 -0.369625 9.91382 0.00119886 -3.08495 -22.0023 -1.70495 0.216925 21.2871 19.4919 -6.07138 -17.9107 -0.767245 4.79271 5.2587 -2.21234 
42.1453 94.1817 25.8228 -1.63109 -1.1899 0.29194 0.303026 0.0926984 -13.0028 -4.60514 51.9226 -4.17661 0.951086 7.06987 -0.209441 -12.4449 0.312275 1.41031 3.69976 1.59284 -0.0168331 0.989757 1.79343 0.0777244 -4.08574 6.82708 1.64778 -1.52195e-016 0 9.93923e-017 -85.8217 -34.9674 -6.258 -21.6605 9.56912 11.076 0.368473 9.90896 -0.00117925 -3.78749 0.415431 4.59857 98.942 -20.6818 26.7668 16.4734 17.563 35.4199 -0.369625 9.91382 0.00119886 -4.53893 -21.4977 -2.18027 0.168539 23.0174 19.4021 -5.80976 -19.4274 -0.806617 4.13066 5.3697 -2.04454 
42.413 94.141 27.6784 -0.75712 -1.124 0.476498 -1.11037 -2.7685 -11.8018 -4.91808 57.0926 -3.96106 -0.115743 10.6125 -0.1212 -10.371 2.58104 1.75215 3.26179 1.62741 -0.176584 -0.0112832 2.17225 0.107964 -4.35578 6.51115 1.48319 6.9264e-016 0 -0 -86.8019 -32.9628 -8.60004 -22.1032 9.71672 9.93001 0.368473 9.90896 -0.00117925 -3.6116 0.415436 4.35008 98.3139 -21.3794 24.5801 17.0936 17.582 34.0385 -0.369625 9.91382 0.00119886 -5.7903 -20.7761 -2.34107 0.187528 23.9435 19.4034 -5.60833 -20.6841 -0.840542 4.02411 5.31176 -2.00636 
42.6626 94.3066 29.4371 -0.264259 -0.906382 0.319537 -1.87431 -6.10801 -10.1402 -5.11848 61.7209 -5.77869 -0.966902 11.5615 -0.0219584 -7.10535 3.98889 1.71558 3.02918 1.65875 -0.252448 -0.469258 2.29007 0.124338 -4.81066 6.48149 1.73653 -3.05942e-016 -3.97569e-016 -0 -87.6218 -30.9399 -10.7267 -22.6892 9.86013 8.66117 0.368473 9.90896 -0.00117925 -3.65835 0.416114 4.41897 97.8708 -22.1931 22.5146 17.5645 17.459 32.2891 -0.369625 9.91382 0.00119886 -6.43652 -19.8674 -1.8487 0.440787 24.0293 19.0826 -5.67647 -21.4256 -0.890779 3.40913 4.43894 -1.66888 
42.8863 94.5654 31.1454 -0.0128559 -0.626778 0.0884912 -2.08988 -9.63733 -8.27118 -4.64734 65.5771 -8.86944 -1.73699 11.1734 0.0699916 -3.76332 4.90367 1.55033 2.86417 1.68826 -0.266853 -0.584589 2.2944 0.130911 -5.33741 6.62982 2.04904 -5.37e-016 0 -2.32951e-017 -88.3035 -28.7841 -12.8207 -23.3137 10.0217 7.32544 0.368473 9.90896 -0.00117925 -3.71514 0.411997 4.4208 97.3847 -23.0603 20.5164 17.9924 17.2331 30.1671 -0.369625 9.91382 0.00119886 -6.76478 -18.8245 -1.31058 0.647917 23.6595 18.79 -5.84709 -21.9832 -0.948274 3.00763 3.64641 -1.40443 
43.064 94.8384 32.856 0.0306972 -0.343375 -0.0279199 -1.89213 -13.0582 -6.40815 -4.06303 68.333 -12.0003 -2.50695 10.123 0.127256 -1.84198 5.33223 1.41996 2.68132 1.71819 -0.225708 -0.430219 2.23952 0.126781 -5.84336 6.93691 2.1311 -1.18883e-015 7.95139e-016 -2.48481e-017 -88.7699 -26.4496 -14.9668 -23.8895 10.2049 6.02318 0.368473 9.90896 -0.00117925 -3.54762 0.405475 4.07746 96.6024 -23.9668 18.5292 18.4941 16.9284 27.6015 -0.369625 9.91382 0.00119886 -6.87495 -17.7591 -1.44508 0.454248 23.2578 18.9621 -6.03053 -22.6553 -1.01602 3.43857 3.90932 -1.57169 
43.2127 95.1436 34.5565 -0.0965078 -0.12858 -0.029419 -1.32539 -16.2458 -4.78849 -3.59046 69.9807 -14.6229 -3.09265 8.62465 0.150451 -0.584001 5.34738 1.28587 2.48393 1.77313 -0.146707 -0.0770323 2.22448 0.113245 -6.21035 7.29976 2.03904 3.87475e-016 0 4.34841e-017 -89.0946 -23.9239 -17.1117 -24.3949 10.4104 4.74175 0.368473 9.90896 -0.00117925 -3.29592 0.385887 3.43122 95.7343 -24.9844 16.5898 18.9037 16.5379 24.861 -0.369625 9.91382 0.00119886 -6.77189 -16.5421 -1.52737 0.281521 22.6877 18.9387 -6.20699 -23.2862 -1.08175 3.87501 4.34486 -1.77403 
43.339 95.4836 36.2533 -0.389999 -0.104197 0.177505 -0.544874 -18.945 -3.87962 -4.26715 70.3993 -14.9557 -3.25796 7.23747 0.125157 0.236317 5.02718 1.17085 2.22486 1.89855 -0.0396752 0.43453 2.4012 0.0884345 -6.24681 7.59062 1.70078 7.76503e-016 -1.59028e-015 -0 -89.3545 -21.0838 -19.2581 -24.783 10.625 3.57495 0.368473 9.90896 -0.00117925 -3.04526 0.338152 2.34407 94.958 -26.1715 14.7569 19.0944 16.0809 22.1316 -0.369625 9.91382 0.00119886 -6.49867 -15.0336 -0.821784 0.529487 21.9196 17.8952 -6.30743 -23.8287 -1.1315 3.45601 4.28369 -1.64801 
43.4542 95.8247 37.9422 -0.718178 -0.180188 0.50191 0.233206 -21.2663 -3.32506 -5.31563 69.7775 -14.3779 -3.25729 5.60131 0.0718078 0.717608 4.3629 1.05613 1.96939 2.03406 0.0658907 0.940734 2.66537 0.0609235 -6.07153 7.8636 1.21046 1.67725e-016 7.95139e-016 -9.93923e-017 -89.4603 -18.2421 -21.3543 -25.0425 10.8957 2.30392 0.368473 9.90896 -0.00117925 -2.7304 0.277517 1.07885 94.0811 -27.5644 12.8987 19.1321 15.6056 19.5795 -0.369625 9.91382 0.00119886 -6.23543 -13.3684 -0.137066 0.799784 21.0138 16.8053 -6.38635 -24.2562 -1.17189 2.89206 4.06101 -1.45206 
43.581 96.1373 39.6262 -0.921847 -0.336441 0.88797 0.785577 -23.1985 -2.96268 -5.83109 68.2112 -13.9614 -3.31837 3.37257 0.00231999 1.09056 3.27836 0.920091 1.78791 2.13385 0.129783 1.23277 2.98227 0.0390666 -5.74037 8.1599 0.631159 5.34234e-016 -7.95139e-016 -0 -89.4226 -15.6753 -23.3308 -25.1171 11.2781 0.677187 0.368473 9.90896 -0.00117925 -2.31792 0.215858 -0.13968 92.9424 -29.2426 10.875 19.0626 15.1966 17.4637 -0.369625 9.91382 0.00119886 -6.12423 -11.5976 -0.201254 0.83421 20.0362 16.5005 -6.46775 -24.5092 -1.20241 2.5486 3.7502 -1.30175 
43.6908 96.4121 41.2899 -1.07561 -0.484907 1.32388 1.23925 -24.8609 -2.64211 -5.77919 65.7333 -14.2809 -3.28336 1.06073 -0.0733017 1.18373 2.05391 0.794449 1.62031 2.19976 0.174234 1.40472 3.295 0.0216791 -5.2572 8.39023 -0.0152001 -1.2424e-016 0 -0 -89.24 -13.3123 -25.2502 -25.0583 11.7177 -1.12076 0.368473 9.90896 -0.00117925 -1.79211 0.14909 -1.33528 91.5376 -31.1123 8.72482 18.9146 14.8394 15.6663 -0.369625 9.91382 0.00119886 -6.03241 -9.85326 -0.444995 0.823609 19.0522 16.5045 -6.57449 -24.6389 -1.23058 2.59997 3.46751 -1.26232 
